<svg width="73" height="49" viewBox="0 0 73 49" fill="none" xmlns="http://www.w3.org/2000/svg">
<path d="M64.6231 1.20537C63.3098 1.66983 62.541 1.81396 61.0195 1.94209C57.5441 2.23037 57.5281 2.23037 52.1148 7.19522C49.3922 9.69365 48.3992 10.4144 44.6035 12.5925C37.877 16.4522 34.7379 17.6054 28.4277 18.5823C22.582 19.4632 19.0266 20.28 15.2148 21.5772C7.43125 24.2358 2.27422 28.6882 0.368359 34.3737C0.0640625 35.3026 0 35.7991 0 37.4808C0.0160156 39.3386 0.0480469 39.5788 0.5125 40.7159C2.16211 44.8479 6.4543 47.8749 11.9316 48.7718C13.8855 49.0761 17.6492 49.0761 20.3398 48.7718C25.2887 48.1952 29.9973 46.5136 33.1203 44.2073C34.0012 43.5507 34.1934 43.3265 34.1934 42.9581C34.1934 42.7019 34.0492 42.3655 33.8731 42.2054C33.5688 41.9331 33.4406 41.9331 30.3176 42.5097C23.8953 43.6628 19.475 44.1272 16.2719 44.0151C14.5902 43.9351 13.9977 43.839 12.7164 43.4226C10.9227 42.846 9.40117 41.9171 8.90469 41.1163C8.4082 40.2995 8.18398 38.8581 8.48828 38.2655C8.93672 37.4327 10.7145 36.3757 12.9887 35.639C13.9336 35.3347 14.5582 35.2386 15.6793 35.2386C17.473 35.2386 18.402 35.0144 18.2578 34.63C18.2098 34.4858 18.1137 33.9253 18.0656 33.3968C17.9695 32.2757 18.1938 31.8753 18.9785 31.8753C19.5871 31.8753 19.8754 32.3237 20.0035 33.4929C20.2117 35.4628 21.1727 37.6089 22.1176 38.2335C22.7582 38.6499 26.602 38.6499 27.4988 38.2495C28.2035 37.9292 28.5879 37.2886 28.3156 36.8722C28.1715 36.6479 27.9313 36.6159 26.7301 36.6479C25.4969 36.712 25.2727 36.664 25.0484 36.4077C24.9203 36.2476 24.4559 35.1585 24.0074 33.9733C23.575 32.7882 22.7902 30.9464 22.2617 29.8894C21.0766 27.487 20.9324 27.3909 18.5781 27.3909C16.7844 27.3909 16.5762 27.2948 16.5762 26.478C16.5762 25.5972 17.0566 25.421 19.1066 25.5011C21.9734 25.6132 22.582 26.0776 24.1836 29.3929C24.648 30.3538 25.3367 31.9714 25.7211 32.9644L26.4098 34.7901L27.2586 34.678C27.8992 34.5979 28.3316 34.646 28.8922 34.8542L29.6449 35.1265L32.1273 34.4538C35.2824 33.589 39.4145 32.2116 40.7918 31.571L41.8488 31.0585L41.7688 29.8253C41.7207 29.1366 41.7367 27.439 41.8008 26.0296L41.9129 23.4991L43.5945 21.6894C44.9719 20.1839 45.3563 19.8636 45.7246 19.8636C45.9809 19.8636 46.3012 19.9757 46.4293 20.1198C46.9418 20.6323 46.7336 21.0808 45.2602 22.6983L43.8348 24.2679L43.7227 26.1097C43.5945 28.1116 43.8508 33.3007 44.1391 34.4058C44.3793 35.2706 44.5395 35.3187 47.15 35.1905C49.5844 35.0784 50.0488 34.9503 50.0488 34.3097C50.0488 33.605 49.7926 33.4769 48.3672 33.4769C46.7496 33.4769 46.5254 33.3007 46.5254 32.0194C46.5254 30.9304 46.9098 28.3839 47.2461 27.2308C47.3902 26.7503 47.7906 25.8855 48.127 25.3089C48.4633 24.7323 49.1199 23.4831 49.6004 22.5382C50.5293 20.6644 50.8336 20.4081 51.5703 20.8886C51.8426 21.0647 51.9707 21.305 51.9707 21.5933C51.9707 22.0577 50.5613 25.0687 49.7445 26.3499C49.168 27.2468 48.9918 27.8073 48.7676 29.3929C48.6715 30.0015 48.5594 30.7382 48.5273 31.0105L48.4473 31.5229L49.4082 31.587C50.8816 31.6991 51.9707 32.7081 51.9707 33.9733V34.5659L52.9797 34.4858C54.7734 34.3257 55.334 33.8933 55.334 32.6601C55.334 32.3397 55.1738 32.0194 54.8695 31.6991C54.4531 31.2827 54.293 31.2347 53.4281 31.2347C52.8836 31.2347 52.4512 31.2026 52.4512 31.1546C52.4512 31.1065 52.3391 30.4339 52.2109 29.6491L51.9547 28.2077L52.5313 26.5261C52.8356 25.5812 53.0918 24.7163 53.0918 24.5882C53.0918 24.4601 53.4441 23.9956 53.8926 23.5312C54.6613 22.7304 54.8856 22.346 55.9746 19.8956C56.407 18.9507 56.7594 18.5022 57.8805 17.4132C60.3469 15.0429 65.6961 10.5905 68.0023 8.98896C69.3797 8.02803 69.9082 7.01904 69.9082 5.32139V4.47256L70.757 4.08818C71.2055 3.86396 71.75 3.68779 71.9582 3.68779C72.3906 3.68779 72.9512 3.15928 72.9512 2.72686C72.9512 2.55069 72.791 2.24639 72.6149 2.07022C72.2145 1.66983 71.3977 1.71787 70.2285 2.21436L69.5078 2.51865L69.1875 1.95811C68.3707 0.532715 67.1695 0.340527 64.6231 1.20537ZM61.0035 5.06514C61.5641 5.60967 61.1637 6.73076 60.427 6.73076C59.9465 6.73076 59.4981 6.28233 59.4981 5.80186C59.4981 4.96904 60.443 4.50459 61.0035 5.06514Z" fill="#171717"/>
</svg>
