<svg width="358" height="241" viewBox="0 0 358 241" fill="none" xmlns="http://www.w3.org/2000/svg">
<path d="M241.202 1.14253C238.312 2.16455 236.621 2.48173 233.273 2.76366C225.625 3.39803 225.59 3.39803 213.678 14.3231C207.687 19.8209 205.502 21.4068 197.149 26.1997C182.348 34.693 175.44 37.2305 161.555 39.3802C148.691 41.3186 140.868 43.1159 132.48 45.9705C115.352 51.8207 104.004 61.618 99.8106 74.129C99.141 76.173 99 77.2655 99 80.9659C99.0352 85.054 99.1057 85.5827 100.128 88.0849C103.758 97.1773 113.203 103.838 125.255 105.812C129.555 106.481 137.837 106.481 143.758 105.812C154.647 104.543 165.009 100.843 171.881 95.7676C173.819 94.3227 174.242 93.8293 174.242 93.0188C174.242 92.4549 173.925 91.7148 173.537 91.3624C172.868 90.7633 172.586 90.7633 165.713 92.032C151.581 94.5694 141.854 95.5914 134.806 95.3447C131.106 95.1685 129.802 94.9571 126.982 94.0408C123.035 92.7721 119.687 90.728 118.595 88.9659C117.502 87.1686 117.009 83.9968 117.678 82.6928C118.665 80.8602 122.577 78.5342 127.581 76.9131C129.661 76.2435 131.035 76.032 133.502 76.032C137.449 76.032 139.493 75.5387 139.176 74.6928C139.07 74.3757 138.859 73.1422 138.753 71.9792C138.542 69.5123 139.035 68.6312 140.762 68.6312C142.101 68.6312 142.735 69.618 143.017 72.1907C143.476 76.5254 145.59 81.2479 147.669 82.6223C149.079 83.5386 157.537 83.5386 159.511 82.6576C161.061 81.9527 161.907 80.543 161.308 79.6267C160.991 79.1334 160.462 79.0629 157.819 79.1334C155.105 79.2743 154.612 79.1686 154.119 78.6047C153.837 78.2523 152.815 75.8558 151.828 73.2479C150.876 70.64 149.15 66.5872 147.987 64.2612C145.379 58.9749 145.061 58.7634 139.881 58.7634C135.934 58.7634 135.476 58.552 135.476 56.7546C135.476 54.8163 136.533 54.4286 141.044 54.6048C147.352 54.8515 148.691 55.8736 152.216 63.1687C153.238 65.2832 154.753 68.8427 155.599 71.0277L157.114 75.0453L158.982 74.7986C160.392 74.6224 161.343 74.7281 162.577 75.1862L164.233 75.7854L169.696 74.3052C176.638 72.4021 185.731 69.3713 188.762 67.9616L191.088 66.8339L190.911 64.1202C190.806 62.6048 190.841 58.8691 190.982 55.7678L191.229 50.1996L194.929 46.2172C197.96 42.9044 198.806 42.1996 199.616 42.1996C200.18 42.1996 200.885 42.4463 201.167 42.7635C202.295 43.8912 201.837 44.878 198.594 48.4375L195.458 51.8912L195.211 55.944C194.929 60.3493 195.493 71.7677 196.127 74.1995C196.656 76.1025 197.008 76.2083 202.753 75.9263C208.11 75.6796 209.132 75.3977 209.132 73.988C209.132 72.4374 208.568 72.1554 205.431 72.1554C201.872 72.1554 201.378 71.7677 201.378 68.9484C201.378 66.5519 202.224 60.9484 202.964 58.411C203.281 57.3537 204.163 55.4506 204.903 54.1819C205.643 52.9132 207.088 50.1643 208.145 48.085C210.189 43.9617 210.859 43.3978 212.48 44.4551C213.079 44.8428 213.361 45.3714 213.361 46.0058C213.361 47.0278 210.259 53.6533 208.462 56.4727C207.193 58.4462 206.806 59.6797 206.312 63.1687C206.101 64.5079 205.854 66.129 205.784 66.7281L205.607 67.8559L207.722 67.9968C210.964 68.2435 213.361 70.4638 213.361 73.2479V74.5519L215.581 74.3757C219.528 74.0232 220.762 73.0717 220.762 70.3581C220.762 69.6532 220.409 68.9484 219.74 68.2435C218.823 67.3272 218.471 67.2215 216.568 67.2215C215.37 67.2215 214.418 67.151 214.418 67.0453C214.418 66.9396 214.171 65.4594 213.889 63.7325L213.325 60.5608L214.594 56.8603C215.264 54.781 215.828 52.878 215.828 52.596C215.828 52.3141 216.603 51.2921 217.59 50.2701C219.281 48.5079 219.775 47.6621 222.171 42.2701C223.123 40.1908 223.898 39.204 226.365 36.8076C231.792 31.5917 243.563 21.7944 248.638 18.2702C251.669 16.1557 252.832 13.9354 252.832 10.1998V8.33192L254.7 7.48611C255.687 6.99272 256.885 6.60506 257.343 6.60506C258.294 6.60506 259.528 5.44207 259.528 4.49053C259.528 4.10287 259.175 3.43327 258.788 3.04561C257.907 2.16455 256.109 2.27028 253.537 3.36279L251.951 4.03239L251.246 2.79891C249.449 -0.337639 246.805 -0.760544 241.202 1.14253ZM233.237 9.63588C234.471 10.8341 233.59 13.3011 231.969 13.3011C230.911 13.3011 229.925 12.3143 229.925 11.257C229.925 9.42443 232.004 8.4024 233.237 9.63588Z" fill="#171717"/>
<path d="M3.81818 158.784V148.182H59.5227V158.784H37.9432V218H25.3977V158.784H3.81818ZM70.2614 218V148.182H96.4432C101.807 148.182 106.307 149.114 109.943 150.977C113.602 152.841 116.364 155.455 118.227 158.818C120.114 162.159 121.057 166.057 121.057 170.511C121.057 174.989 120.102 178.875 118.193 182.17C116.307 185.443 113.523 187.977 109.841 189.773C106.159 191.545 101.636 192.432 96.2727 192.432H77.625V181.932H94.5682C97.7045 181.932 100.273 181.5 102.273 180.636C104.273 179.75 105.75 178.466 106.705 176.784C107.682 175.08 108.17 172.989 108.17 170.511C108.17 168.034 107.682 165.92 106.705 164.17C105.727 162.398 104.239 161.057 102.239 160.148C100.239 159.216 97.6591 158.75 94.5 158.75H82.9091V218H70.2614ZM106.33 186.364L123.614 218H109.5L92.5227 186.364H106.33ZM145.347 148.182V218H132.699V148.182H145.347ZM155.974 158.784V148.182H211.679V158.784H190.099V218H177.554V158.784H155.974ZM281.71 183.091C281.71 190.614 280.301 197.057 277.483 202.42C274.688 207.761 270.869 211.852 266.028 214.693C261.21 217.534 255.744 218.955 249.631 218.955C243.517 218.955 238.04 217.534 233.199 214.693C228.381 211.83 224.563 207.727 221.744 202.386C218.949 197.023 217.551 190.591 217.551 183.091C217.551 175.568 218.949 169.136 221.744 163.795C224.563 158.432 228.381 154.33 233.199 151.489C238.04 148.648 243.517 147.227 249.631 147.227C255.744 147.227 261.21 148.648 266.028 151.489C270.869 154.33 274.688 158.432 277.483 163.795C280.301 169.136 281.71 175.568 281.71 183.091ZM268.994 183.091C268.994 177.795 268.165 173.33 266.506 169.693C264.869 166.034 262.597 163.273 259.688 161.409C256.778 159.523 253.426 158.58 249.631 158.58C245.835 158.58 242.483 159.523 239.574 161.409C236.665 163.273 234.381 166.034 232.722 169.693C231.085 173.33 230.267 177.795 230.267 183.091C230.267 188.386 231.085 192.864 232.722 196.523C234.381 200.159 236.665 202.92 239.574 204.807C242.483 206.67 245.835 207.602 249.631 207.602C253.426 207.602 256.778 206.67 259.688 204.807C262.597 202.92 264.869 200.159 266.506 196.523C268.165 192.864 268.994 188.386 268.994 183.091ZM351.043 148.182V218H339.793L306.895 170.443H306.315V218H293.668V148.182H304.986L337.849 195.773H338.463V148.182H351.043Z" fill="#171717"/>
</svg>
