<svg width="93" height="61" viewBox="0 0 93 61" fill="none" xmlns="http://www.w3.org/2000/svg">
<path d="M81.5915 0.655674C79.9334 1.24208 78.9628 1.42407 77.0418 1.58584C72.6538 1.94981 72.6336 1.94981 65.7989 8.2183C62.3614 11.3728 61.1077 12.2827 56.3153 15.0328C47.8225 19.906 43.8592 21.3619 35.8922 22.5954C28.5115 23.7075 24.0225 24.7388 19.2099 26.3767C9.38251 29.7334 2.87137 35.3548 0.465082 42.5332C0.0808837 43.706 0 44.3329 0 46.4561C0.0202209 48.8017 0.0606628 49.105 0.64707 50.5407C2.72983 55.7577 8.14904 59.5795 15.0646 60.7119C17.5316 61.096 22.2835 61.096 25.6806 60.7119C31.9289 59.9839 37.8738 57.8607 41.8169 54.9489C42.9291 54.1198 43.1717 53.8367 43.1717 53.3717C43.1717 53.0481 42.9897 52.6235 42.7673 52.4213C42.3831 52.0775 42.2213 52.0775 38.2782 52.8055C30.1696 54.2614 24.5887 54.8478 20.5445 54.7062C18.4213 54.6051 17.6731 54.4838 16.0554 53.9581C13.7907 53.2301 11.8697 52.0573 11.2428 51.0462C10.616 50.015 10.3329 48.1951 10.7171 47.4469C11.2833 46.3954 13.5278 45.0608 16.3992 44.1307C17.5922 43.7465 18.3808 43.6252 19.7963 43.6252C22.061 43.6252 23.2339 43.3421 23.0519 42.8568C22.9912 42.6748 22.8699 41.967 22.8092 41.2998C22.6879 39.8843 22.971 39.3788 23.9618 39.3788C24.7302 39.3788 25.0942 39.945 25.256 41.4211C25.5188 43.9083 26.7321 46.6179 27.9251 47.4065C28.734 47.9322 33.587 47.9322 34.7193 47.4267C35.6091 47.0223 36.0944 46.2134 35.7506 45.6877C35.5686 45.4046 35.2653 45.3642 33.7487 45.4046C32.1917 45.4855 31.9086 45.4248 31.6255 45.1013C31.4638 44.8991 30.8774 43.5241 30.3112 42.0277C29.7652 40.5314 28.7744 38.2059 28.1071 36.8714C26.6108 33.8382 26.4288 33.7169 23.4563 33.7169C21.1915 33.7169 20.9287 33.5956 20.9287 32.5643C20.9287 31.4522 21.5353 31.2297 24.1236 31.3308C27.7431 31.4724 28.5115 32.0588 30.5336 36.2445C31.12 37.4578 31.9895 39.5001 32.4748 40.7538L33.3443 43.059L34.416 42.9174C35.2249 42.8163 35.7708 42.877 36.4786 43.1399L37.429 43.4836L40.5632 42.6343C44.5467 41.5424 49.7637 39.8034 51.5027 38.9946L52.8373 38.3475L52.7362 36.7905C52.6755 35.921 52.6958 33.7776 52.7766 31.9981L52.9182 28.8032L55.0414 26.5182C56.7804 24.6175 57.2657 24.2131 57.7308 24.2131C58.0543 24.2131 58.4587 24.3546 58.6205 24.5366C59.2676 25.1837 59.0047 25.7499 57.1444 27.7922L55.3447 29.7738L55.2032 32.0992C55.0414 34.6268 55.3649 41.1784 55.7289 42.5737C56.0322 43.6656 56.2344 43.7263 59.5304 43.5645C62.604 43.423 63.1904 43.2612 63.1904 42.4523C63.1904 41.5626 62.8669 41.4009 61.0672 41.4009C59.0249 41.4009 58.7418 41.1784 58.7418 39.5608C58.7418 38.1857 59.2271 34.9706 59.6518 33.5147C59.8338 32.9081 60.3393 31.8161 60.7639 31.0882C61.1886 30.3602 62.0176 28.783 62.6242 27.59C63.7971 25.2241 64.1813 24.9006 65.1114 25.5072C65.4552 25.7296 65.6169 26.0329 65.6169 26.3969C65.6169 26.9833 63.8375 30.7849 62.8062 32.4025C62.0783 33.5349 61.8558 34.2426 61.5728 36.2445C61.4514 37.0129 61.3099 37.9431 61.2694 38.2868L61.1683 38.9339L62.3816 39.0148C64.2419 39.1563 65.6169 40.4303 65.6169 42.0277V42.7759L66.8909 42.6748C69.1556 42.4726 69.8633 41.9266 69.8633 40.3696C69.8633 39.9652 69.6611 39.5608 69.2769 39.1563C68.7512 38.6306 68.549 38.5699 67.457 38.5699C66.7695 38.5699 66.2236 38.5295 66.2236 38.4688C66.2236 38.4082 66.082 37.5589 65.9203 36.5681L65.5967 34.7482L66.3247 32.625C66.7089 31.4319 67.0324 30.34 67.0324 30.1782C67.0324 30.0165 67.4773 29.4301 68.0435 28.8437C69.0141 27.8326 69.2971 27.3473 70.6722 24.2535C71.2181 23.0605 71.663 22.4943 73.0785 21.1193C76.1925 18.1266 82.9463 12.5051 85.8581 10.483C87.5971 9.26979 88.2644 7.99587 88.2644 5.85246V4.78074L89.3361 4.29544C89.9023 4.01235 90.5898 3.78992 90.8527 3.78992C91.3986 3.78992 92.1064 3.12263 92.1064 2.57666C92.1064 2.35423 91.9042 1.97004 91.6817 1.7476C91.1762 1.24208 90.1449 1.30274 88.6688 1.92959L87.7589 2.31379L87.3544 1.60606C86.3232 -0.193607 84.8066 -0.436256 81.5915 0.655674ZM77.0216 5.52892C77.7293 6.21643 77.2238 7.6319 76.2936 7.6319C75.687 7.6319 75.1208 7.06571 75.1208 6.45908C75.1208 5.40759 76.3138 4.82119 77.0216 5.52892Z" fill="#F0F0F0"/>
</svg>
