<svg width="42" height="42" viewBox="0 0 42 42" fill="none" xmlns="http://www.w3.org/2000/svg">
<path d="M28 28V10.85C28 8.88982 28 7.90972 27.6185 7.16103C27.283 6.50247 26.7475 5.96703 26.089 5.63148C25.3403 5.25 24.3602 5.25 22.4 5.25H9.1C7.13982 5.25 6.15972 5.25 5.41103 5.63148C4.75247 5.96703 4.21703 6.50247 3.88148 7.16103C3.5 7.90972 3.5 8.88982 3.5 10.85V22.4C3.5 24.3602 3.5 25.3403 3.88148 26.089C4.21703 26.7475 4.75247 27.283 5.41103 27.6185C6.15972 28 7.13982 28 9.1 28H28ZM28 28H35.7C36.6801 28 37.1701 28 37.5445 27.8093C37.8738 27.6415 38.1415 27.3738 38.3093 27.0445C38.5 26.6701 38.5 26.1801 38.5 25.2V20.4098C38.5 19.9818 38.5 19.7677 38.4516 19.5663C38.4088 19.3878 38.3381 19.2171 38.2421 19.0605C38.1339 18.8839 37.9826 18.7326 37.6799 18.4299L34.0701 14.8201C33.7674 14.5174 33.6161 14.3661 33.4395 14.2579C33.2829 14.1619 33.1122 14.0912 32.9337 14.0484C32.7323 14 32.5182 14 32.0902 14H28M15.75 32.375C15.75 34.7912 13.7912 36.75 11.375 36.75C8.95875 36.75 7 34.7912 7 32.375C7 29.9588 8.95875 28 11.375 28C13.7912 28 15.75 29.9588 15.75 32.375ZM35 32.375C35 34.7912 33.0412 36.75 30.625 36.75C28.2088 36.75 26.25 34.7912 26.25 32.375C26.25 29.9588 28.2088 28 30.625 28C33.0412 28 35 29.9588 35 32.375Z" stroke="#171717" stroke-width="2" stroke-linecap="round" stroke-linejoin="round"/>
</svg>
