<svg width="42" height="42" viewBox="0 0 42 42" fill="none" xmlns="http://www.w3.org/2000/svg">
<path d="M28.0006 15.75V10.5C28.0006 6.63401 24.8666 3.5 21.0006 3.5C17.1347 3.5 14.0006 6.63401 14.0006 10.5V15.75M6.28665 18.1159L5.23665 29.3159C4.93811 32.5004 4.78883 34.0927 5.31723 35.3225C5.78142 36.4029 6.59485 37.2961 7.62718 37.8591C8.80232 38.5 10.4015 38.5 13.6 38.5H28.4013C31.5998 38.5 33.199 38.5 34.3741 37.8591C35.4064 37.2961 36.2199 36.4029 36.6841 35.3225C37.2125 34.0927 37.0632 32.5004 36.7646 29.3159L35.7146 18.1159C35.4625 15.4269 35.3365 14.0823 34.7317 13.0658C34.1991 12.1705 33.4122 11.4539 32.4712 11.0072C31.4026 10.5 30.0522 10.5 27.3513 10.5L14.65 10.5C11.9491 10.5 10.5987 10.5 9.53013 11.0072C8.58906 11.4539 7.80216 12.1705 7.26955 13.0658C6.6648 14.0823 6.53875 15.4269 6.28665 18.1159Z" stroke="#171717" stroke-width="2" stroke-linecap="round" stroke-linejoin="round"/>
</svg>
