<svg width="264" height="264" viewBox="0 0 264 264" fill="none" xmlns="http://www.w3.org/2000/svg">
<g clip-path="url(#clip0_402_75)">
<rect width="264" height="264" rx="30" fill="white"/>
<path d="M217.91 59.2377C213.874 60.6652 211.511 61.1083 206.834 61.5021C196.153 62.3881 196.103 62.3881 179.465 77.6478C171.097 85.3269 168.045 87.542 156.379 94.2366C135.704 106.1 126.056 109.644 106.662 112.647C88.6948 115.354 77.7668 117.865 66.0513 121.852C42.128 130.023 26.2776 143.708 20.4199 161.182C19.4846 164.037 19.2877 165.563 19.2877 170.732C19.3369 176.442 19.4354 177.18 20.8629 180.675C25.9331 193.375 39.1253 202.679 55.9602 205.436C61.9657 206.371 73.5335 206.371 81.8033 205.436C97.0138 203.663 111.486 198.495 121.085 191.406C123.792 189.388 124.383 188.699 124.383 187.567C124.383 186.779 123.94 185.746 123.398 185.253C122.463 184.416 122.069 184.416 112.47 186.189C92.7312 189.733 79.1451 191.16 69.3002 190.816C64.1316 190.57 62.3102 190.274 58.3722 188.994C52.8591 187.222 48.1827 184.367 46.6567 181.906C45.1308 179.396 44.4416 174.965 45.3769 173.144C46.7552 170.584 52.2191 167.335 59.2091 165.071C62.1133 164.136 64.0331 163.841 67.4788 163.841C72.992 163.841 75.8471 163.151 75.404 161.97C75.2564 161.527 74.961 159.804 74.8133 158.18C74.518 154.734 75.2071 153.503 77.6192 153.503C79.4897 153.503 80.3758 154.882 80.7696 158.475C81.4095 164.53 84.363 171.126 87.2672 173.046C89.2362 174.325 101.05 174.325 103.807 173.095C105.973 172.11 107.154 170.141 106.317 168.861C105.874 168.172 105.136 168.074 101.444 168.172C97.6537 168.369 96.9645 168.222 96.2754 167.434C95.8816 166.942 94.4541 163.594 93.0758 159.952C91.7467 156.309 89.3347 150.648 87.7103 147.399C84.0676 140.016 83.6246 139.72 76.3885 139.72C70.8754 139.72 70.2354 139.425 70.2354 136.915C70.2354 134.207 71.7122 133.666 78.013 133.912C86.8242 134.256 88.6948 135.684 93.6172 145.873C95.0448 148.827 97.1614 153.799 98.3428 156.851L100.459 162.462L103.068 162.118C105.037 161.872 106.366 162.019 108.089 162.659L110.403 163.496L118.033 161.428C127.73 158.77 140.43 154.537 144.663 152.568L147.912 150.993L147.666 147.203C147.518 145.086 147.568 139.868 147.765 135.536L148.109 127.759L153.278 122.196C157.511 117.569 158.692 116.585 159.825 116.585C160.612 116.585 161.597 116.929 161.991 117.372C163.566 118.947 162.926 120.326 158.397 125.297L154.016 130.121L153.672 135.782C153.278 141.935 154.065 157.884 154.951 161.281C155.69 163.939 156.182 164.087 164.206 163.693C171.688 163.348 173.115 162.954 173.115 160.985C173.115 158.82 172.328 158.426 167.947 158.426C162.975 158.426 162.286 157.884 162.286 153.946C162.286 150.599 163.467 142.772 164.501 139.228C164.944 137.751 166.175 135.093 167.208 133.321C168.242 131.549 170.26 127.709 171.737 124.805C174.592 119.046 175.527 118.258 177.792 119.735C178.629 120.277 179.022 121.015 179.022 121.901C179.022 123.328 174.691 132.583 172.18 136.521C170.408 139.277 169.867 141 169.177 145.873C168.882 147.744 168.537 150.008 168.439 150.845L168.193 152.42L171.146 152.617C175.675 152.962 179.022 156.063 179.022 159.952V161.773L182.124 161.527C187.637 161.035 189.36 159.706 189.36 155.915C189.36 154.931 188.867 153.946 187.932 152.962C186.652 151.682 186.16 151.534 183.502 151.534C181.828 151.534 180.499 151.436 180.499 151.288C180.499 151.141 180.155 149.073 179.761 146.661L178.973 142.231L180.745 137.062C181.68 134.158 182.468 131.5 182.468 131.106C182.468 130.712 183.551 129.285 184.929 127.857C187.292 125.396 187.981 124.215 191.329 116.683C192.658 113.779 193.741 112.401 197.186 109.053C204.767 101.768 221.208 88.0835 228.296 83.161C232.53 80.2075 234.154 77.1063 234.154 71.8885V69.2796L236.763 68.0982C238.141 67.409 239.815 66.8676 240.455 66.8676C241.784 66.8676 243.507 65.2431 243.507 63.9141C243.507 63.3726 243.015 62.4373 242.473 61.8959C241.243 60.6652 238.732 60.8129 235.139 62.3389L232.924 63.2742L231.939 61.5513C229.429 57.1703 225.737 56.5796 217.91 59.2377ZM206.785 71.1009C208.508 72.7745 207.277 76.2203 205.013 76.2203C203.536 76.2203 202.158 74.842 202.158 73.3652C202.158 70.8056 205.062 69.378 206.785 71.1009Z" fill="#171717"/>
</g>
<defs>
<clipPath id="clip0_402_75">
<rect width="264" height="264" rx="30" fill="white"/>
</clipPath>
</defs>
</svg>
