<svg width="42" height="42" viewBox="0 0 42 42" fill="none" xmlns="http://www.w3.org/2000/svg">
<path d="M38.5 17.5H3.5M19.25 24.5H10.5M3.5 14.35L3.5 27.65C3.5 29.6102 3.5 30.5903 3.88148 31.339C4.21703 31.9975 4.75247 32.533 5.41103 32.8685C6.15972 33.25 7.13982 33.25 9.1 33.25L32.9 33.25C34.8602 33.25 35.8403 33.25 36.589 32.8685C37.2475 32.533 37.783 31.9975 38.1185 31.339C38.5 30.5903 38.5 29.6102 38.5 27.65V14.35C38.5 12.3898 38.5 11.4097 38.1185 10.661C37.783 10.0025 37.2475 9.46704 36.589 9.13148C35.8403 8.75 34.8602 8.75 32.9 8.75L9.1 8.75C7.13982 8.75 6.15973 8.75 5.41103 9.13148C4.75247 9.46703 4.21703 10.0025 3.88148 10.661C3.5 11.4097 3.5 12.3898 3.5 14.35Z" stroke="#171717" stroke-width="2" stroke-linecap="round" stroke-linejoin="round"/>
</svg>
